<svg xmlns="http://www.w3.org/2000/svg" viewBox="0 0 124.16 124.16"><defs><style>.cls-1,.cls-3{fill:#fff;}.cls-1,.cls-2,.cls-4{stroke:#193f2a;stroke-linejoin:round;stroke-width:2px;}.cls-2,.cls-4{fill:none;}.cls-4{stroke-dasharray:2.92 2.92;}</style></defs><g id="Layer_2" data-name="Layer 2"><g id="Layer_2-2" data-name="Layer 2"><rect class="cls-1" x="1" y="1" width="122.16" height="122.16" rx="23.44"/><rect class="cls-1" x="50.47" y="76.45" width="57.02" height="12.5"/><rect class="cls-1" x="50.47" y="64" width="57.02" height="12.5"/><rect class="cls-1" x="34.73" y="64" width="15.41" height="37.4"/><path class="cls-1" d="M68.9,56.44a26.46,26.46,0,1,1-51.73-7.88c.15-.47.31-.94.48-1.4a26.48,26.48,0,0,1,49.58,0c.17.46.33.92.48,1.4A26.26,26.26,0,0,1,68.9,56.44Z"/><line class="cls-1" x1="42.44" y1="82.89" x2="42.44" y2="29.97"/><path class="cls-2" d="M59.16,35.94,42.44,52.66,25.72,35.94a26.43,26.43,0,0,1,33.44,0Z"/><path class="cls-2" d="M67.23,47.17,42.45,72,17.65,47.16a26.48,26.48,0,0,1,49.58,0Z"/><rect class="cls-1" x="50.47" y="88.9" width="57.02" height="12.5"/><circle class="cls-3" cx="94.22" cy="36.73" r="13.96"/><circle class="cls-4" cx="94.22" cy="36.73" r="13.96"/><circle class="cls-1" cx="94.22" cy="36.73" r="8.7"/></g></g></svg>