<svg xmlns="http://www.w3.org/2000/svg" viewBox="0 0 124.16 124.16"><defs><style>.cls-1{fill:#fff;stroke:#193f2a;stroke-linejoin:round;stroke-width:2px;}.cls-2{fill:#193f2a;}</style></defs><g id="Layer_2" data-name="Layer 2"><g id="Layer_2-2" data-name="Layer 2"><rect class="cls-1" x="1" y="1" width="122.16" height="122.16" rx="23.44"/><path class="cls-2" d="M43.37,72.5a8.2,8.2,0,1,0,8.2,8.2A8.21,8.21,0,0,0,43.37,72.5Zm0,14.23a6,6,0,1,1,6-6A6,6,0,0,1,43.37,86.73Zm0-14.23a8.2,8.2,0,1,0,8.2,8.2A8.21,8.21,0,0,0,43.37,72.5Zm0,14.23a6,6,0,1,1,6-6A6,6,0,0,1,43.37,86.73Zm54.32-8.47a5.36,5.36,0,1,0,5.36,5.36A5.36,5.36,0,0,0,97.69,78.26Zm0,8.54a3.18,3.18,0,1,1,3.18-3.18A3.19,3.19,0,0,1,97.69,86.8Zm0-8.54a5.36,5.36,0,1,0,5.36,5.36A5.36,5.36,0,0,0,97.69,78.26Zm0,8.54a3.18,3.18,0,1,1,3.18-3.18A3.19,3.19,0,0,1,97.69,86.8ZM43.37,72.5a8.2,8.2,0,1,0,8.2,8.2A8.21,8.21,0,0,0,43.37,72.5Zm0,14.23a6,6,0,1,1,6-6A6,6,0,0,1,43.37,86.73Zm0-14.23a8.2,8.2,0,1,0,8.2,8.2A8.21,8.21,0,0,0,43.37,72.5Zm0,14.23a6,6,0,1,1,6-6A6,6,0,0,1,43.37,86.73Zm54.32-8.47a5.36,5.36,0,1,0,5.36,5.36A5.36,5.36,0,0,0,97.69,78.26Zm0,8.54a3.18,3.18,0,1,1,3.18-3.18A3.19,3.19,0,0,1,97.69,86.8Zm0-8.54a5.36,5.36,0,1,0,5.36,5.36A5.36,5.36,0,0,0,97.69,78.26Zm0,8.54a3.18,3.18,0,1,1,3.18-3.18A3.19,3.19,0,0,1,97.69,86.8ZM43.37,72.5a8.2,8.2,0,1,0,8.2,8.2A8.21,8.21,0,0,0,43.37,72.5Zm0,14.23a6,6,0,1,1,6-6A6,6,0,0,1,43.37,86.73Zm0-14.23a8.2,8.2,0,1,0,8.2,8.2A8.21,8.21,0,0,0,43.37,72.5Zm0,14.23a6,6,0,1,1,6-6A6,6,0,0,1,43.37,86.73Zm54.32-8.47a5.36,5.36,0,1,0,5.36,5.36A5.36,5.36,0,0,0,97.69,78.26Zm0,8.54a3.18,3.18,0,1,1,3.18-3.18A3.19,3.19,0,0,1,97.69,86.8Zm0-8.54a5.36,5.36,0,1,0,5.36,5.36A5.36,5.36,0,0,0,97.69,78.26Zm0,8.54a3.18,3.18,0,1,1,3.18-3.18A3.19,3.19,0,0,1,97.69,86.8ZM43.37,72.5a8.2,8.2,0,1,0,8.2,8.2A8.21,8.21,0,0,0,43.37,72.5Zm0,14.23a6,6,0,1,1,6-6A6,6,0,0,1,43.37,86.73ZM99.3,74.11l-1.53-3.39a1.08,1.08,0,0,0-1-.64A92.35,92.35,0,0,1,82.52,69V58.71h4V56.54H56.22v2.17h3.55v3.34c-1.48-.73-2.28-1.21-2.32-1.23a1,1,0,0,0-.57-.16H48.64a1.14,1.14,0,0,0-.69.23l-.7.57L31.59,34.33a1.1,1.1,0,0,0-.94-.55H26.12V32A1.09,1.09,0,0,0,25,30.89H10A1.08,1.08,0,0,0,9,32v5.39A1.08,1.08,0,0,0,10,38.46H25a1.09,1.09,0,0,0,1.09-1.09V36H30L45.54,62.84l-3.71,3a1.08,1.08,0,0,0-.4.85V68.3a12.56,12.56,0,1,0,14,15.78h32.6a9.65,9.65,0,1,0,11.24-10ZM23.94,36.29H11.13V33.07H23.94Zm38,22.42H80.35V60.3h-9.6v1.09h9.6v1.08h-9.6v1.09h9.6v1.09h-9.6v1.08h9.6v2.89a81.15,81.15,0,0,1-18.41-5.55ZM43.37,91.1A10.4,10.4,0,1,1,53.76,80.7,10.42,10.42,0,0,1,43.37,91.1Zm12.5-9.19a12.1,12.1,0,0,0,.06-1.21A12.56,12.56,0,0,0,43.6,68.15v-.94L49,62.83h7.56c2.2,1.29,16.64,9.25,39.49,9.42l.8,1.75a9.67,9.67,0,0,0-8.67,7.91ZM97.69,91.1a7.48,7.48,0,1,1,7.48-7.48A7.49,7.49,0,0,1,97.69,91.1Zm0-12.84a5.36,5.36,0,1,0,5.36,5.36A5.36,5.36,0,0,0,97.69,78.26Zm0,8.54a3.18,3.18,0,1,1,3.18-3.18A3.19,3.19,0,0,1,97.69,86.8ZM43.37,72.5a8.2,8.2,0,1,0,8.2,8.2A8.21,8.21,0,0,0,43.37,72.5Zm0,14.23a6,6,0,1,1,6-6A6,6,0,0,1,43.37,86.73Zm0-14.23a8.2,8.2,0,1,0,8.2,8.2A8.21,8.21,0,0,0,43.37,72.5Zm0,14.23a6,6,0,1,1,6-6A6,6,0,0,1,43.37,86.73Zm54.32-8.47a5.36,5.36,0,1,0,5.36,5.36A5.36,5.36,0,0,0,97.69,78.26Zm0,8.54a3.18,3.18,0,1,1,3.18-3.18A3.19,3.19,0,0,1,97.69,86.8Zm0-8.54a5.36,5.36,0,1,0,5.36,5.36A5.36,5.36,0,0,0,97.69,78.26Zm0,8.54a3.18,3.18,0,1,1,3.18-3.18A3.19,3.19,0,0,1,97.69,86.8ZM43.37,72.5a8.2,8.2,0,1,0,8.2,8.2A8.21,8.21,0,0,0,43.37,72.5Zm0,14.23a6,6,0,1,1,6-6A6,6,0,0,1,43.37,86.73Zm0-14.23a8.2,8.2,0,1,0,8.2,8.2A8.21,8.21,0,0,0,43.37,72.5Zm0,14.23a6,6,0,1,1,6-6A6,6,0,0,1,43.37,86.73Zm54.32-8.47a5.36,5.36,0,1,0,5.36,5.36A5.36,5.36,0,0,0,97.69,78.26Zm0,8.54a3.18,3.18,0,1,1,3.18-3.18A3.19,3.19,0,0,1,97.69,86.8Zm0-8.54a5.36,5.36,0,1,0,5.36,5.36A5.36,5.36,0,0,0,97.69,78.26Zm0,8.54a3.18,3.18,0,1,1,3.18-3.18A3.19,3.19,0,0,1,97.69,86.8ZM43.37,72.5a8.2,8.2,0,1,0,8.2,8.2A8.21,8.21,0,0,0,43.37,72.5Zm0,14.23a6,6,0,1,1,6-6A6,6,0,0,1,43.37,86.73Zm0-14.23a8.2,8.2,0,1,0,8.2,8.2A8.21,8.21,0,0,0,43.37,72.5Zm0,14.23a6,6,0,1,1,6-6A6,6,0,0,1,43.37,86.73Zm54.32-8.47a5.36,5.36,0,1,0,5.36,5.36A5.36,5.36,0,0,0,97.69,78.26Zm0,8.54a3.18,3.18,0,1,1,3.18-3.18A3.19,3.19,0,0,1,97.69,86.8Zm0-8.54a5.36,5.36,0,1,0,5.36,5.36A5.36,5.36,0,0,0,97.69,78.26Zm0,8.54a3.18,3.18,0,1,1,3.18-3.18A3.19,3.19,0,0,1,97.69,86.8Z"/></g></g></svg>