<svg xmlns="http://www.w3.org/2000/svg" viewBox="0 0 124.16 124.16"><defs><style>.cls-1,.cls-2{fill:#fff;}.cls-1,.cls-3{stroke:#193f2a;stroke-linejoin:round;stroke-width:2px;}.cls-3{fill:none;}</style></defs><g id="Layer_2" data-name="Layer 2"><g id="Layer_2-2" data-name="Layer 2"><rect class="cls-1" x="1" y="1" width="122.16" height="122.16" rx="23.44"/><polygon class="cls-2" points="105.81 52.42 97.64 50.44 102.02 43.27 97.53 38.77 90.35 43.16 88.38 34.98 82.02 34.98 80.05 43.16 72.88 38.77 68.38 43.27 72.76 50.44 64.59 52.42 64.59 58.77 72.76 60.75 68.38 67.92 72.88 72.42 80.05 68.03 82.02 76.2 88.38 76.2 90.35 68.03 97.53 72.42 102.02 67.92 97.64 60.75 105.81 58.77 105.81 52.42"/><polygon class="cls-3" points="105.81 52.42 97.64 50.44 102.02 43.27 97.53 38.77 90.35 43.16 88.38 34.98 82.02 34.98 80.05 43.16 72.88 38.77 68.38 43.27 72.76 50.44 64.59 52.42 64.59 58.77 72.76 60.75 68.38 67.92 72.88 72.42 80.05 68.03 82.02 76.2 88.38 76.2 90.35 68.03 97.53 72.42 102.02 67.92 97.64 60.75 105.81 58.77 105.81 52.42"/><rect class="cls-1" x="31.42" y="62.82" width="11.18" height="24"/><rect class="cls-1" x="14.12" y="86.31" width="95.93" height="12.63"/><path class="cls-1" d="M57.1,45.32a20.09,20.09,0,0,1-40.18,0,20.37,20.37,0,0,1,.9-6c.12-.36.24-.71.37-1.06a20.1,20.1,0,0,1,37.64,0c.13.34.25.7.37,1.06A20.25,20.25,0,0,1,57.1,45.32Z"/><line class="cls-1" x1="37.01" y1="65.41" x2="37.01" y2="25.23"/><path class="cls-3" d="M49.71,29.76,37,42.45,24.31,29.76a20.07,20.07,0,0,1,25.4,0Z"/><path class="cls-3" d="M55.83,38.29,37,57.1,18.19,38.28a20.1,20.1,0,0,1,37.64,0Z"/><circle class="cls-1" cx="85.2" cy="55.6" r="6.05"/></g></g></svg>