<svg xmlns="http://www.w3.org/2000/svg" viewBox="0 0 205.24 60.52"><defs><style>.cls-1{fill:none;}.cls-2{fill:#34704f;}.cls-3{fill:#193f2a;}.cls-4{fill:#519e72;}</style></defs><g id="Layer_2" data-name="Layer 2"><g id="Layer_1-2" data-name="Layer 1"><path class="cls-1" d="M165.6,34.23c-1.42,0-2.31.77-2.31,2.8V52.35c0,2,.89,2.8,2.31,2.8s2.31-.77,2.31-2.8V37C167.91,35,167,34.23,165.6,34.23Z"/><polygon class="cls-1" points="125.03 49.88 129.33 49.88 127.18 35.53 125.03 49.88"/><path class="cls-1" d="M130.69,15.07V13.56c0-1.09-.37-1.57-1.22-1.57h-1.16v4.69h.94C130.14,16.68,130.69,16.29,130.69,15.07Z"/><path class="cls-1" d="M198,34.56h-2.14v8.71h1.74c1.66,0,2.67-.73,2.67-3V37.48C200.25,35.45,199.56,34.56,198,34.56Z"/><polygon class="cls-2" points="87.74 22.89 83.6 22.89 83.6 18.43 86.89 18.43 86.89 16.24 83.6 16.24 83.6 11.99 87.74 11.99 87.74 9.81 81.2 9.81 81.2 25.07 87.74 25.07 87.74 22.89"/><polygon class="cls-2" points="97.9 14.02 100.89 25.07 103.35 25.07 103.35 9.81 101.21 9.81 101.21 18.95 98.75 9.81 95.74 9.81 95.74 25.07 97.9 25.07 97.9 14.02"/><polygon class="cls-2" points="110.91 11.99 113.42 11.99 113.42 25.07 115.82 25.07 115.82 11.99 118.33 11.99 118.33 9.81 110.91 9.81 110.91 11.99"/><path class="cls-2" d="M128.31,18.86h.83c1.09,0,1.57.52,1.57,1.94v2.4a4.76,4.76,0,0,0,.22,1.88h2.44a4.54,4.54,0,0,1-.26-1.86V20.87c0-1.6-.4-2.75-1.6-3.25,1.07-.5,1.57-1.53,1.57-3.1v-1.2c0-2.35-1.06-3.51-3.55-3.51h-3.62V25.08h2.4Zm0-6.87h1.16c.85,0,1.22.48,1.22,1.57v1.51c0,1.22-.55,1.61-1.44,1.61h-.94Z"/><polygon class="cls-2" points="147.76 22.89 143.61 22.89 143.61 18.43 146.91 18.43 146.91 16.24 143.61 16.24 143.61 11.99 147.76 11.99 147.76 9.81 141.21 9.81 141.21 25.07 147.76 25.07 147.76 22.89"/><polygon class="cls-2" points="159.99 25.07 159.99 11.99 162.49 11.99 162.49 9.81 155.08 9.81 155.08 11.99 157.59 11.99 157.59 25.07 159.99 25.07"/><rect class="cls-2" x="170.08" y="9.81" width="2.4" height="15.26"/><polygon class="cls-2" points="187.3 22.89 183.16 22.89 183.16 18.43 186.45 18.43 186.45 16.24 183.16 16.24 183.16 11.99 187.3 11.99 187.3 9.81 180.76 9.81 180.76 25.07 187.3 25.07 187.3 22.89"/><polygon class="cls-2" points="197.46 14.02 200.44 25.07 202.91 25.07 202.91 9.81 200.77 9.81 200.77 18.95 198.31 9.81 195.3 9.81 195.3 25.07 197.46 25.07 197.46 14.02"/><path class="cls-3" d="M85.84,37c0-2,.81-2.8,2.23-2.8S90.3,35,90.3,37V38.2h4.21v-.89c0-4.54-2.23-7.13-6.56-7.13s-6.57,2.59-6.57,7.13c0,8.11,8.71,9.2,8.71,15,0,2-.89,2.75-2.31,2.75s-2.31-.72-2.31-2.75v-2H81.26v1.75c0,4.53,2.27,7.13,6.65,7.13s6.64-2.6,6.64-7.13C94.55,44,85.84,42.87,85.84,37Z"/><polygon class="cls-3" points="95.81 34.56 100.47 34.56 100.47 58.87 104.93 58.87 104.93 34.56 109.59 34.56 109.59 30.5 95.81 30.5 95.81 34.56"/><rect class="cls-3" x="110.03" y="42.66" width="8.11" height="4.05"/><path class="cls-3" d="M124.14,30.5,119.6,58.87h4.09l.77-5.14h5.47l.77,5.14h4.5L130.66,30.5ZM125,49.88l2.15-14.35,2.15,14.35Z"/><polygon class="cls-3" points="146.71 50.65 143.43 30.5 137.23 30.5 137.23 58.87 141.12 58.87 141.12 38.81 144.44 58.87 148.66 58.87 151.74 38.53 151.74 58.87 155.95 58.87 155.95 30.5 149.75 30.5 146.71 50.65"/><path class="cls-3" d="M165.6,30.18c-4.38,0-6.77,2.59-6.77,7.13V52.07c0,4.53,2.39,7.13,6.77,7.13s6.77-2.6,6.77-7.13V37.31C172.37,32.77,170,30.18,165.6,30.18Zm2.31,22.17c0,2-.89,2.8-2.31,2.8s-2.31-.77-2.31-2.8V37c0-2,.89-2.8,2.31-2.8s2.31.77,2.31,2.8Z"/><path class="cls-3" d="M184.12,52.39c0,2-.89,2.76-2.31,2.76s-2.31-.73-2.31-2.76V30.5H175V52.11c0,4.53,2.27,7.13,6.65,7.13s6.65-2.6,6.65-7.13V30.5h-4.22Z"/><path class="cls-3" d="M204.75,55.43V51.05c0-3-.73-5.1-3-6,2-.93,2.92-2.83,2.92-5.75V37c0-4.38-2-6.53-6.6-6.53h-6.73V58.87h4.46V47.32h1.54c2,0,2.91,1,2.91,3.61v4.46a8.72,8.72,0,0,0,.41,3.48h4.54A8.25,8.25,0,0,1,204.75,55.43Zm-4.5-15.16c0,2.27-1,3-2.67,3h-1.74V34.56H198c1.58,0,2.27.89,2.27,2.92Z"/><polygon class="cls-3" points="10.89 40.03 0 60.52 32.17 60.52 32.17 53.78 10.89 40.03"/><polygon class="cls-3" points="20.26 22.41 19.23 24.36 20.26 22.41 20.26 22.41"/><polygon class="cls-3" points="22.57 18.07 21.68 19.75 21.68 19.75 22.57 18.07"/><polygon class="cls-3" points="56.44 40.03 35.17 53.78 35.17 60.52 67.34 60.52 56.44 40.03"/><rect class="cls-3" x="40.41" y="-1.3" width="0.01" height="22.36" transform="translate(0.09 20.13) rotate(-27.99)"/><polygon class="cls-3" points="47.08 22.41 55.03 37.37 55.03 37.37 52.62 32.84 47.08 22.41 47.08 22.41"/><polygon class="cls-2" points="47.08 22.41 35.17 30.11 35.17 50.21 55.03 37.37 47.08 22.41"/><polygon class="cls-4" points="35.17 26.53 45.66 19.75 35.17 0.01 35.17 26.53"/><polygon class="cls-2" points="32.17 50.21 32.17 30.11 20.26 22.41 19.23 24.36 12.31 37.37 32.17 50.21"/><polygon class="cls-2" points="21.68 19.75 32.17 0.01 32.17 0.01 22.57 18.07 21.68 19.75 21.68 19.75"/><polygon class="cls-4" points="21.68 19.75 32.17 26.53 32.17 0.01 21.68 19.75"/></g></g></svg>