<svg xmlns="http://www.w3.org/2000/svg" viewBox="0 0 124.16 124.16"><defs><style>.cls-1{fill:#fff;stroke:#193f2a;stroke-linejoin:round;stroke-width:2px;}</style></defs><g id="Layer_2" data-name="Layer 2"><g id="Layer_2-2" data-name="Layer 2"><rect class="cls-1" x="1" y="1" width="122.16" height="122.16" rx="23.44"/><polygon class="cls-1" points="53.53 53.34 25.89 53.34 17.42 81.05 51.53 81.05 53.53 53.34"/><polygon class="cls-1" points="94.12 39.74 64.77 39.74 65.83 81.05 106.75 81.05 94.12 39.74"/><polygon class="cls-1" points="65.12 53.34 53.53 53.34 51.53 81.05 65.83 81.05 65.12 53.34"/><polygon class="cls-1" points="64.61 33.39 31.98 33.39 25.89 53.34 65.12 53.34 64.61 33.39"/><polygon class="cls-1" points="94.12 39.74 64.77 39.74 64.61 33.39 92.18 33.39 94.12 39.74"/><rect class="cls-1" x="17.42" y="81.05" width="89.33" height="9.73"/><rect class="cls-1" x="65.83" y="81.05" width="40.91" height="9.73"/><rect class="cls-1" x="51.53" y="81.05" width="14.31" height="9.73" transform="translate(117.36 171.82) rotate(180)"/></g></g></svg>