<svg xmlns="http://www.w3.org/2000/svg" viewBox="0 0 124.16 124.16"><defs><style>.cls-1{fill:#fff;}.cls-1,.cls-2{stroke:#193f2a;stroke-linejoin:round;stroke-width:2px;}.cls-2{fill:none;}</style></defs><g id="Layer_2" data-name="Layer 2"><g id="Layer_2-2" data-name="Layer 2"><rect class="cls-1" x="1" y="1" width="122.16" height="122.16" rx="23.44"/><path class="cls-1" d="M35.87,71a43.69,43.69,0,0,0,.42-8,67.76,67.76,0,0,0-.75-8.37,50,50,0,0,0-1.93-8.26,25.7,25.7,0,0,0-3.88-7.65,26.93,26.93,0,0,1,6.13,6.5,53.09,53.09,0,0,1,4.5,7.91,73.45,73.45,0,0,1,3.38,8.53A53.85,53.85,0,0,1,46,71Z"/><path class="cls-1" d="M46.29,71a43.69,43.69,0,0,0,.42-8A67.76,67.76,0,0,0,46,54.6,50,50,0,0,0,44,46.34a25.7,25.7,0,0,0-3.88-7.65,26.93,26.93,0,0,1,6.13,6.5,53.09,53.09,0,0,1,4.5,7.91,73.45,73.45,0,0,1,3.38,8.53A53,53,0,0,1,56.39,71Z"/><path class="cls-1" d="M56,71a43.69,43.69,0,0,0,.42-8,67.76,67.76,0,0,0-.75-8.37,50,50,0,0,0-1.93-8.26,25.7,25.7,0,0,0-3.88-7.65,26.93,26.93,0,0,1,6.13,6.5,53.09,53.09,0,0,1,4.5,7.91,73.45,73.45,0,0,1,3.38,8.53A53.85,53.85,0,0,1,66.05,71Z"/><path class="cls-1" d="M27.75,71.15a31,31,0,0,0,.42-6.71,48.08,48.08,0,0,0-.75-7,36.56,36.56,0,0,0-1.93-6.94A20.55,20.55,0,0,0,21.61,44a24.87,24.87,0,0,1,6.13,5.46,44.07,44.07,0,0,1,4.5,6.64,56.58,56.58,0,0,1,3.38,7.18,38.49,38.49,0,0,1,2.23,7.83Z"/><path class="cls-1" d="M27.29,71.93a25.63,25.63,0,0,0-1.62-5.35,37.28,37.28,0,0,0-2.46-4.89A29.46,29.46,0,0,0,20,57.16a17.58,17.58,0,0,0-4.46-3.73,13.82,13.82,0,0,1,2.82,4.38,23.34,23.34,0,0,1,1.4,4.74,31.52,31.52,0,0,1,.55,4.8,20.56,20.56,0,0,1-.3,4.58Z"/><path class="cls-1" d="M76.77,71a44.63,44.63,0,0,0,.41-8,67.74,67.74,0,0,0-.74-8.37,50,50,0,0,0-1.93-8.26,25.93,25.93,0,0,0-3.88-7.65,27.33,27.33,0,0,1,6.13,6.5,54.92,54.92,0,0,1,4.5,7.91,73.4,73.4,0,0,1,3.37,8.53A53,53,0,0,1,86.86,71Z"/><path class="cls-1" d="M87.19,71a44.63,44.63,0,0,0,.41-8,67.74,67.74,0,0,0-.74-8.37,50,50,0,0,0-1.93-8.26,25.93,25.93,0,0,0-3.88-7.65,27.33,27.33,0,0,1,6.13,6.5,54.92,54.92,0,0,1,4.5,7.91,73.4,73.4,0,0,1,3.37,8.53A53,53,0,0,1,97.28,71Z"/><path class="cls-1" d="M96.85,71a44.63,44.63,0,0,0,.41-8,67.74,67.74,0,0,0-.74-8.37,51,51,0,0,0-1.93-8.26,25.93,25.93,0,0,0-3.88-7.65,27.33,27.33,0,0,1,6.13,6.5,53.94,53.94,0,0,1,4.49,7.91,71.71,71.71,0,0,1,3.38,8.53A53,53,0,0,1,106.94,71Z"/><path class="cls-1" d="M66.6,71.15A31.65,31.65,0,0,0,67,64.44a48.06,48.06,0,0,0-.74-7,37.31,37.31,0,0,0-1.93-6.94A20.74,20.74,0,0,0,60.46,44a25.23,25.23,0,0,1,6.13,5.46,44.76,44.76,0,0,1,4.49,6.64,55.23,55.23,0,0,1,3.38,7.18,38.49,38.49,0,0,1,2.23,7.83Z"/><rect class="cls-1" x="18.12" y="68.81" width="90.55" height="24.07"/><path class="cls-2" d="M17.33,79.84c9.13,0,9.13,2,18.26,2s9.13-2,18.27-2,9.13,2,18.27,2,9.13-2,18.27-2,9.13,2,18.27,2"/></g></g></svg>